<svg xmlns="http://www.w3.org/2000/svg" viewBox="0 0 33 33" shape-rendering="crispEdges"><path fill="#111" d="M0 0h7v1h-7zM9 0h3v1h-3zM14 0h2v1h-2zM18 0h3v1h-3zM22 0h2v1h-2zM26 0h7v1h-7zM0 1h1v1h-1zM6 1h1v1h-1zM9 1h2v1h-2zM15 1h1v1h-1zM17 1h1v1h-1zM20 1h2v1h-2zM23 1h2v1h-2zM26 1h1v1h-1zM32 1h1v1h-1zM0 2h1v1h-1zM2 2h3v1h-3zM6 2h1v1h-1zM9 2h4v1h-4zM14 2h1v1h-1zM17 2h1v1h-1zM19 2h2v1h-2zM22 2h1v1h-1zM24 2h1v1h-1zM26 2h1v1h-1zM28 2h3v1h-3zM32 2h1v1h-1zM0 3h1v1h-1zM2 3h3v1h-3zM6 3h1v1h-1zM9 3h1v1h-1zM12 3h2v1h-2zM15 3h1v1h-1zM17 3h1v1h-1zM19 3h1v1h-1zM21 3h1v1h-1zM23 3h2v1h-2zM26 3h1v1h-1zM28 3h3v1h-3zM32 3h1v1h-1zM0 4h1v1h-1zM2 4h3v1h-3zM6 4h1v1h-1zM9 4h1v1h-1zM11 4h1v1h-1zM13 4h1v1h-1zM16 4h2v1h-2zM19 4h1v1h-1zM23 4h1v1h-1zM26 4h1v1h-1zM28 4h3v1h-3zM32 4h1v1h-1zM0 5h1v1h-1zM6 5h1v1h-1zM8 5h2v1h-2zM14 5h1v1h-1zM17 5h2v1h-2zM20 5h2v1h-2zM26 5h1v1h-1zM32 5h1v1h-1zM0 6h7v1h-7zM8 6h1v1h-1zM10 6h1v1h-1zM12 6h1v1h-1zM14 6h1v1h-1zM16 6h1v1h-1zM18 6h1v1h-1zM20 6h1v1h-1zM22 6h1v1h-1zM24 6h1v1h-1zM26 6h7v1h-7zM10 7h1v1h-1zM12 7h1v1h-1zM14 7h1v1h-1zM17 7h1v1h-1zM19 7h3v1h-3zM24 7h1v1h-1zM0 8h1v1h-1zM3 8h1v1h-1zM5 8h2v1h-2zM8 8h1v1h-1zM13 8h4v1h-4zM19 8h1v1h-1zM21 8h1v1h-1zM25 8h1v1h-1zM27 8h1v1h-1zM0 9h1v1h-1zM3 9h2v1h-2zM8 9h1v1h-1zM10 9h1v1h-1zM16 9h1v1h-1zM20 9h1v1h-1zM22 9h1v1h-1zM24 9h4v1h-4zM32 9h1v1h-1zM0 10h1v1h-1zM6 10h3v1h-3zM10 10h1v1h-1zM17 10h1v1h-1zM19 10h1v1h-1zM21 10h2v1h-2zM24 10h1v1h-1zM26 10h3v1h-3zM30 10h1v1h-1zM32 10h1v1h-1zM0 11h1v1h-1zM3 11h1v1h-1zM8 11h3v1h-3zM12 11h1v1h-1zM14 11h2v1h-2zM17 11h1v1h-1zM19 11h2v1h-2zM23 11h3v1h-3zM28 11h2v1h-2zM32 11h1v1h-1zM6 12h1v1h-1zM9 12h4v1h-4zM15 12h1v1h-1zM19 12h1v1h-1zM23 12h2v1h-2zM26 12h1v1h-1zM29 12h1v1h-1zM3 13h1v1h-1zM7 13h1v1h-1zM9 13h3v1h-3zM13 13h1v1h-1zM15 13h3v1h-3zM21 13h2v1h-2zM24 13h3v1h-3zM28 13h2v1h-2zM31 13h2v1h-2zM2 14h1v1h-1zM6 14h4v1h-4zM11 14h1v1h-1zM14 14h1v1h-1zM18 14h1v1h-1zM20 14h2v1h-2zM23 14h1v1h-1zM25 14h4v1h-4zM31 14h1v1h-1zM0 15h1v1h-1zM2 15h1v1h-1zM4 15h1v1h-1zM8 15h1v1h-1zM12 15h1v1h-1zM15 15h1v1h-1zM17 15h3v1h-3zM21 15h1v1h-1zM23 15h1v1h-1zM26 15h1v1h-1zM31 15h1v1h-1zM3 16h1v1h-1zM5 16h3v1h-3zM10 16h1v1h-1zM17 16h1v1h-1zM19 16h6v1h-6zM26 16h1v1h-1zM28 16h2v1h-2zM31 16h1v1h-1zM0 17h6v1h-6zM10 17h3v1h-3zM16 17h1v1h-1zM21 17h1v1h-1zM23 17h1v1h-1zM27 17h1v1h-1zM29 17h1v1h-1zM31 17h1v1h-1zM0 18h5v1h-5zM6 18h3v1h-3zM11 18h1v1h-1zM13 18h2v1h-2zM18 18h1v1h-1zM22 18h1v1h-1zM25 18h1v1h-1zM30 18h3v1h-3zM0 19h1v1h-1zM8 19h3v1h-3zM13 19h1v1h-1zM16 19h6v1h-6zM24 19h2v1h-2zM27 19h1v1h-1zM0 20h2v1h-2zM3 20h2v1h-2zM6 20h8v1h-8zM16 20h3v1h-3zM22 20h4v1h-4zM31 20h2v1h-2zM4 21h1v1h-1zM10 21h1v1h-1zM12 21h1v1h-1zM14 21h3v1h-3zM18 21h5v1h-5zM24 21h1v1h-1zM26 21h1v1h-1zM31 21h2v1h-2zM0 22h2v1h-2zM4 22h7v1h-7zM13 22h1v1h-1zM15 22h1v1h-1zM17 22h1v1h-1zM20 22h1v1h-1zM22 22h1v1h-1zM24 22h1v1h-1zM26 22h1v1h-1zM28 22h1v1h-1zM30 22h1v1h-1zM32 22h1v1h-1zM1 23h2v1h-2zM4 23h1v1h-1zM7 23h1v1h-1zM10 23h1v1h-1zM12 23h2v1h-2zM16 23h1v1h-1zM18 23h1v1h-1zM21 23h3v1h-3zM27 23h1v1h-1zM32 23h1v1h-1zM0 24h1v1h-1zM2 24h2v1h-2zM6 24h6v1h-6zM14 24h4v1h-4zM19 24h3v1h-3zM24 24h6v1h-6zM31 24h1v1h-1zM8 25h4v1h-4zM14 25h1v1h-1zM19 25h2v1h-2zM22 25h1v1h-1zM24 25h1v1h-1zM28 25h2v1h-2zM32 25h1v1h-1zM0 26h7v1h-7zM9 26h1v1h-1zM11 26h1v1h-1zM14 26h1v1h-1zM20 26h2v1h-2zM24 26h1v1h-1zM26 26h1v1h-1zM28 26h4v1h-4zM0 27h1v1h-1zM6 27h1v1h-1zM8 27h3v1h-3zM16 27h1v1h-1zM19 27h1v1h-1zM24 27h1v1h-1zM28 27h1v1h-1zM32 27h1v1h-1zM0 28h1v1h-1zM2 28h3v1h-3zM6 28h1v1h-1zM9 28h1v1h-1zM11 28h3v1h-3zM15 28h2v1h-2zM22 28h1v1h-1zM24 28h6v1h-6zM31 28h1v1h-1zM0 29h1v1h-1zM2 29h3v1h-3zM6 29h1v1h-1zM8 29h3v1h-3zM12 29h1v1h-1zM14 29h2v1h-2zM17 29h1v1h-1zM19 29h2v1h-2zM23 29h2v1h-2zM26 29h1v1h-1zM28 29h4v1h-4zM0 30h1v1h-1zM2 30h3v1h-3zM6 30h1v1h-1zM9 30h2v1h-2zM12 30h1v1h-1zM23 30h3v1h-3zM28 30h2v1h-2zM32 30h1v1h-1zM0 31h1v1h-1zM6 31h1v1h-1zM11 31h1v1h-1zM14 31h5v1h-5zM21 31h1v1h-1zM24 31h1v1h-1zM0 32h7v1h-7zM8 32h1v1h-1zM11 32h4v1h-4zM16 32h1v1h-1zM18 32h1v1h-1zM20 32h2v1h-2zM24 32h1v1h-1zM28 32h1v1h-1zM31 32h1v1h-1z"/></svg>